<?xml version="1.0" standalone="no"?>
<!DOCTYPE svg PUBLIC "-//W3C//DTD SVG 20010904//EN"
 "http://www.w3.org/TR/2001/REC-SVG-20010904/DTD/svg10.dtd">
<svg version="1.0" xmlns="http://www.w3.org/2000/svg"
 width="675.000000pt" height="675.000000pt" viewBox="0 0 675.000000 675.000000"
 preserveAspectRatio="xMidYMid meet">
<metadata>
Created by potrace 1.14, written by Peter Selinger 2001-2017
</metadata>
<g transform="translate(0.000000,675.000000) scale(0.100000,-0.100000)"
fill="#000000" stroke="none">
<path d="M3505 5851 c-29 -12 -50 -38 -81 -101 -14 -30 -60 -106 -102 -169
-59 -90 -82 -116 -111 -128 -51 -22 -78 -8 -136 69 -27 36 -75 86 -105 109
-30 24 -65 55 -77 70 -12 14 -50 45 -85 68 -49 33 -70 41 -97 39 -32 -3 -40
-10 -85 -83 -27 -44 -85 -143 -128 -220 -103 -184 -148 -224 -217 -195 -16 6
-76 54 -133 106 -82 75 -124 105 -203 144 -55 28 -108 50 -118 50 -9 0 -26
-15 -37 -32 -27 -43 -100 -273 -135 -421 -31 -132 -47 -160 -91 -160 -16 0
-94 23 -174 53 -271 99 -375 132 -431 137 -80 8 -85 -3 -69 -156 11 -106 21
-173 80 -520 30 -173 45 -163 -270 -180 -186 -10 -333 -29 -392 -53 -38 -14
-36 -38 9 -149 49 -123 138 -286 245 -447 48 -74 88 -139 88 -147 0 -7 -66
-59 -148 -116 -291 -203 -433 -329 -417 -372 17 -42 322 -212 555 -307 68 -28
133 -58 143 -68 26 -23 57 -86 57 -114 0 -13 -36 -96 -79 -184 -107 -217 -150
-358 -123 -401 13 -20 58 -32 170 -44 97 -11 119 -10 237 10 72 12 174 32 227
46 54 14 104 22 112 19 14 -5 17 -29 29 -182 l2 -34 42 31 c24 17 45 31 47 31
2 0 6 -41 8 -90 4 -124 26 -133 127 -55 24 19 48 32 52 29 5 -3 9 -21 9 -40 0
-80 44 -97 106 -39 20 19 38 34 39 33 1 -2 11 -25 22 -53 10 -27 24 -50 30
-50 7 0 33 29 60 65 27 36 56 66 65 68 11 2 24 -11 39 -40 18 -36 20 -47 10
-72 -6 -17 -7 -32 -2 -35 5 -4 20 -29 34 -58 15 -28 31 -54 37 -58 23 -14 50
9 82 70 18 36 36 65 39 65 4 0 19 -18 33 -39 47 -67 73 -65 105 10 l21 49 46
-35 c25 -19 51 -35 58 -35 18 0 36 21 36 42 0 21 16 24 27 4 4 -7 20 -15 34
-18 25 -5 27 -2 33 45 l7 50 60 -7 c43 -4 70 -2 96 9 32 14 44 14 112 -1 91
-20 264 -22 343 -5 71 15 143 6 169 -22 10 -12 34 -57 52 -100 17 -44 42 -90
55 -104 l23 -25 18 24 c10 12 30 47 45 76 14 28 28 52 31 52 2 0 18 -20 35
-45 50 -73 84 -57 115 53 7 22 8 22 51 -17 53 -50 81 -53 96 -11 l10 30 34
-21 c40 -24 61 -20 70 15 l6 26 25 -20 c52 -41 83 -14 83 71 0 21 3 39 6 39 3
0 29 -20 57 -45 56 -51 77 -54 91 -10 6 17 11 32 13 34 1 2 25 -6 52 -18 71
-30 79 -28 102 28 l21 49 55 -15 c80 -21 87 -17 93 45 4 37 2 56 -7 64 -21 17
-15 63 12 88 22 20 23 26 11 39 -8 9 -17 32 -21 51 -11 58 -16 70 -28 70 -17
0 -102 -46 -150 -81 -22 -16 -41 -28 -43 -26 -1 1 4 31 11 67 8 36 14 89 15
118 l0 52 -40 0 c-22 0 -76 -13 -122 -30 -45 -16 -83 -30 -84 -30 -1 0 11 33
26 72 15 40 30 92 34 116 11 72 -22 75 -234 25 l-25 -6 29 34 c32 38 96 164
96 190 0 23 -29 29 -152 29 -60 0 -108 3 -108 6 0 4 22 28 48 53 70 67 125
151 110 169 -19 23 -60 39 -143 57 -44 10 -84 21 -88 25 -5 4 17 22 49 41 32
18 80 54 108 81 l50 48 -28 29 c-15 15 -65 46 -111 67 -46 21 -83 43 -82 48 2
5 21 14 44 21 22 7 72 29 112 51 53 28 71 43 71 59 0 25 -64 94 -122 133 -37
24 -50 27 -142 28 -172 2 -295 44 -391 135 -217 205 -126 494 155 492 134 -1
254 -65 397 -209 l83 -84 62 0 c35 0 80 3 102 7 38 6 38 6 34 47 -3 23 -24 82
-47 130 -22 49 -41 92 -41 97 0 4 25 -3 55 -17 30 -14 91 -33 135 -42 71 -15
82 -15 90 -2 15 23 12 76 -10 174 -11 49 -18 91 -16 94 3 2 18 -5 35 -17 41
-30 139 -77 184 -89 54 -15 62 4 59 151 -1 64 1 117 4 117 3 0 29 -20 57 -45
55 -48 139 -95 169 -95 29 0 48 60 55 171 3 54 10 99 15 99 4 0 8 -3 8 -7 0
-27 171 -168 184 -152 1 2 17 36 35 74 18 39 57 114 88 169 65 116 83 174 84
276 0 89 -10 123 -48 147 -40 26 -154 21 -351 -15 -90 -17 -169 -29 -176 -26
-29 11 -48 68 -62 192 -19 167 -59 322 -105 414 -21 41 -63 68 -106 68 -31 0
-177 -97 -328 -219 -43 -35 -108 -77 -143 -95 l-64 -31 -31 36 c-18 20 -64 83
-104 140 -49 71 -99 128 -157 179 -104 91 -128 102 -181 81z m-317 -3908 l-3
-188 -125 0 c-69 -1 -133 1 -142 3 -16 4 -18 21 -18 181 0 98 3 181 7 184 3 4
69 7 145 7 l138 0 -2 -187z"/>
<path d="M2920 1985 c0 -96 3 -125 13 -125 10 0 13 29 13 125 0 96 -3 125 -13
125 -10 0 -13 -29 -13 -125z"/>
<path d="M3000 2080 c0 -33 4 -35 47 -20 34 12 75 0 109 -31 l22 -20 -2 50 -1
51 -87 0 -88 0 0 -30z"/>
<path d="M3068 1986 c-15 -8 -29 -12 -32 -8 -3 3 -6 -8 -6 -25 0 -32 14 -43
55 -43 32 0 51 34 36 66 -12 28 -17 29 -53 10z"/>
<path d="M3155 1880 c-18 -19 -17 -20 1 -20 13 0 20 7 21 20 1 11 0 20 -1 20
-2 0 -11 -9 -21 -20z"/>
<path d="M3083 1805 c0 -22 2 -30 4 -17 2 12 2 30 0 40 -3 9 -5 -1 -4 -23z"/>
<path d="M3101 1824 c0 -11 3 -14 6 -6 3 7 2 16 -1 19 -3 4 -6 -2 -5 -13z"/>
<path d="M3003 1823 c-7 -2 -13 -9 -13 -14 0 -6 4 -8 9 -4 5 3 12 -3 14 -12 3
-11 5 -8 6 10 0 15 0 27 -1 26 -2 0 -9 -3 -15 -6z"/>
<path d="M2951 1812 c-1 -13 22 -42 32 -42 3 0 3 9 0 20 -3 11 -9 18 -13 15
-5 -3 -11 1 -13 7 -4 10 -6 10 -6 0z"/>
<path d="M3150 1796 c0 -8 4 -17 9 -20 5 -4 7 3 4 14 -6 23 -13 26 -13 6z"/>
<path d="M3101 1784 c0 -11 3 -14 6 -6 3 7 2 16 -1 19 -3 4 -6 -2 -5 -13z"/>
<path d="M4840 3760 c-57 -34 -85 -83 -85 -149 0 -109 75 -177 186 -169 71 5
105 27 137 88 27 53 28 101 3 156 -27 59 -72 88 -146 92 -47 2 -68 -2 -95 -18z
m194 -46 c32 -31 11 -84 -32 -84 -35 0 -52 17 -52 52 0 43 53 64 84 32z"/>
<path d="M6300 3449 c-97 -15 -160 -56 -222 -145 -35 -50 -38 -60 -38 -124 0
-136 75 -270 190 -339 70 -42 219 -21 317 45 81 55 104 97 116 209 8 82 7 98
-7 120 -9 13 -16 33 -16 44 0 26 -71 108 -130 149 -42 30 -49 32 -73 21 -22
-10 -30 -10 -44 3 -26 22 -43 25 -93 17z"/>
<path d="M5270 2483 c0 -65 154 -203 260 -233 22 -6 35 -4 51 9 21 17 21 17
-22 30 -24 7 -62 22 -83 33 -52 26 -141 111 -156 148 -14 33 -50 42 -50 13z"/>
</g>
</svg>
